<svg width="67" height="67" viewBox="0 0 67 67" fill="none" xmlns="http://www.w3.org/2000/svg">
<g filter="url(#filter0_d_3000_84893)">
<rect x="10.9531" y="8.74152" width="45.0711" height="45.0711" rx="12.2921" fill="#212529" shape-rendering="crispEdges"/>
<rect x="11.4653" y="9.25369" width="44.0468" height="44.0468" rx="11.7799" stroke="#343A40" stroke-width="1.02434" shape-rendering="crispEdges"/>
<g clip-path="url(#clip0_3000_84893)">
<path fill-rule="evenodd" clip-rule="evenodd" d="M43.8789 19.1001C43.9902 19.1689 44.082 19.265 44.1458 19.3793C44.2095 19.4936 44.243 19.6223 44.243 19.7531V42.8008C44.243 43.0046 44.1621 43.2 44.018 43.3441C43.8739 43.4882 43.6785 43.5691 43.4748 43.5691H38.8652C38.6615 43.5691 38.4661 43.4882 38.322 43.3441C38.1779 43.2 38.097 43.0046 38.097 42.8008V40.4961H36.5605V42.8008C36.5605 43.0046 36.4795 43.2 36.3354 43.3441C36.1914 43.4882 35.996 43.5691 35.7922 43.5691H21.9636C21.7598 43.5691 21.5644 43.4882 21.4203 43.3441C21.2763 43.2 21.1953 43.0046 21.1953 42.8008V34.35C21.1954 34.1888 21.2462 34.0318 21.3406 33.9011C21.4349 33.7704 21.5679 33.6726 21.7208 33.6217L30.4144 30.7238V25.8992C30.4144 25.7566 30.4541 25.6169 30.529 25.4956C30.6039 25.3743 30.711 25.2762 30.8385 25.2124L43.1306 19.0663C43.2478 19.0076 43.3782 18.9799 43.5091 18.9858C43.6401 18.9917 43.7674 19.0311 43.8789 19.1001ZM30.4144 32.3433L22.7318 34.9032V42.0326H30.4144V32.3433ZM31.9509 42.0326H35.0239V39.7278C35.0239 39.5241 35.1049 39.3287 35.249 39.1846C35.393 39.0405 35.5885 38.9596 35.7922 38.9596H38.8652C39.069 38.9596 39.2644 39.0405 39.4085 39.1846C39.5526 39.3287 39.6335 39.5241 39.6335 39.7278V42.0326H42.7065V20.9962L31.9509 26.374V42.0326Z" fill="white"/>
<path d="M24.2683 35.8865H25.8049V37.423H24.2683V35.8865ZM27.3414 35.8865H28.8779V37.423H27.3414V35.8865ZM24.2683 38.9596H25.8049V40.4961H24.2683V38.9596ZM27.3414 38.9596H28.8779V40.4961H27.3414V38.9596ZM33.4874 32.8135H35.0239V34.35H33.4874V32.8135ZM36.5605 32.8135H38.097V34.35H36.5605V32.8135ZM33.4874 35.8865H35.0239V37.423H33.4874V35.8865ZM36.5605 35.8865H38.097V37.423H36.5605V35.8865ZM39.6335 32.8135H41.17V34.35H39.6335V32.8135ZM39.6335 35.8865H41.17V37.423H39.6335V35.8865ZM33.4874 29.7405H35.0239V31.277H33.4874V29.7405ZM36.5605 29.7405H38.097V31.277H36.5605V29.7405ZM39.6335 29.7405H41.17V31.277H39.6335V29.7405ZM33.4874 26.6674H35.0239V28.204H33.4874V26.6674ZM36.5605 26.6674H38.097V28.204H36.5605V26.6674ZM39.6335 26.6674H41.17V28.204H39.6335V26.6674ZM39.6335 23.5944H41.17V25.1309H39.6335V23.5944Z" fill="white"/>
</g>
</g>
<defs>
<filter id="filter0_d_3000_84893" x="0.709691" y="0.546769" width="65.5572" height="65.558" filterUnits="userSpaceOnUse" color-interpolation-filters="sRGB">
<feFlood flood-opacity="0" result="BackgroundImageFix"/>
<feColorMatrix in="SourceAlpha" type="matrix" values="0 0 0 0 0 0 0 0 0 0 0 0 0 0 0 0 0 0 127 0" result="hardAlpha"/>
<feOffset dy="2.04869"/>
<feGaussianBlur stdDeviation="5.12172"/>
<feComposite in2="hardAlpha" operator="out"/>
<feColorMatrix type="matrix" values="0 0 0 0 0.486275 0 0 0 0 0.552941 0 0 0 0 0.709804 0 0 0 0.12 0"/>
<feBlend mode="normal" in2="BackgroundImageFix" result="effect1_dropShadow_3000_84893"/>
<feBlend mode="normal" in="SourceGraphic" in2="effect1_dropShadow_3000_84893" result="shape"/>
</filter>
<clipPath id="clip0_3000_84893">
<rect width="24.5842" height="24.5842" fill="white" transform="translate(21.1953 18.9849)"/>
</clipPath>
</defs>
</svg>
