<svg width="67" height="67" viewBox="0 0 67 67" fill="none" xmlns="http://www.w3.org/2000/svg">
<g filter="url(#filter0_d_3000_84883)">
<rect x="10.9375" y="8.74152" width="45.0711" height="45.0711" rx="12.2921" fill="#212529" shape-rendering="crispEdges"/>
<rect x="11.4497" y="9.25369" width="44.0468" height="44.0468" rx="11.7799" stroke="#343A40" stroke-width="1.02434" shape-rendering="crispEdges"/>
<g clip-path="url(#clip0_3000_84883)">
<path d="M29.6305 18.9849C29.8343 18.9849 30.0297 19.0659 30.1738 19.2099C30.3178 19.354 30.3988 19.5494 30.3988 19.7532V25.8992C30.3988 26.5105 30.156 27.0967 29.7237 27.529C29.2915 27.9612 28.7053 28.204 28.094 28.204H21.9479C21.7442 28.204 21.5488 28.1231 21.4047 27.979C21.2606 27.8349 21.1797 27.6395 21.1797 27.4358C21.1797 27.232 21.2606 27.0366 21.4047 26.8925C21.5488 26.7484 21.7442 26.6675 21.9479 26.6675H28.094C28.2978 26.6675 28.4932 26.5866 28.6372 26.4425C28.7813 26.2984 28.8623 26.103 28.8623 25.8992V19.7532C28.8623 19.5494 28.9432 19.354 29.0873 19.2099C29.2314 19.0659 29.4268 18.9849 29.6305 18.9849V18.9849ZM37.3131 18.9849C37.5168 18.9849 37.7123 19.0659 37.8563 19.2099C38.0004 19.354 38.0814 19.5494 38.0814 19.7532V25.8992C38.0814 26.103 38.1623 26.2984 38.3064 26.4425C38.4504 26.5866 38.6459 26.6675 38.8496 26.6675H44.9957C45.1994 26.6675 45.3948 26.7484 45.5389 26.8925C45.683 27.0366 45.7639 27.232 45.7639 27.4358C45.7639 27.6395 45.683 27.8349 45.5389 27.979C45.3948 28.1231 45.1994 28.204 44.9957 28.204H38.8496C38.2383 28.204 37.6521 27.9612 37.2199 27.529C36.7877 27.0967 36.5448 26.5105 36.5448 25.8992V19.7532C36.5448 19.5494 36.6258 19.354 36.7699 19.2099C36.9139 19.0659 37.1093 18.9849 37.3131 18.9849V18.9849ZM21.1797 35.1183C21.1797 34.9146 21.2606 34.7192 21.4047 34.5751C21.5488 34.431 21.7442 34.3501 21.9479 34.3501H28.094C28.7053 34.3501 29.2915 34.5929 29.7237 35.0251C30.156 35.4574 30.3988 36.0436 30.3988 36.6548V42.8009C30.3988 43.0047 30.3178 43.2001 30.1738 43.3441C30.0297 43.4882 29.8343 43.5692 29.6305 43.5692C29.4268 43.5692 29.2314 43.4882 29.0873 43.3441C28.9432 43.2001 28.8623 43.0047 28.8623 42.8009V36.6548C28.8623 36.4511 28.7813 36.2557 28.6372 36.1116C28.4932 35.9675 28.2978 35.8866 28.094 35.8866H21.9479C21.7442 35.8866 21.5488 35.8056 21.4047 35.6616C21.2606 35.5175 21.1797 35.3221 21.1797 35.1183ZM36.5448 36.6548C36.5448 36.0436 36.7877 35.4574 37.2199 35.0251C37.6521 34.5929 38.2383 34.3501 38.8496 34.3501H44.9957C45.1994 34.3501 45.3948 34.431 45.5389 34.5751C45.683 34.7192 45.7639 34.9146 45.7639 35.1183C45.7639 35.3221 45.683 35.5175 45.5389 35.6616C45.3948 35.8056 45.1994 35.8866 44.9957 35.8866H38.8496C38.6459 35.8866 38.4504 35.9675 38.3064 36.1116C38.1623 36.2557 38.0814 36.4511 38.0814 36.6548V42.8009C38.0814 43.0047 38.0004 43.2001 37.8563 43.3441C37.7123 43.4882 37.5168 43.5692 37.3131 43.5692C37.1093 43.5692 36.9139 43.4882 36.7699 43.3441C36.6258 43.2001 36.5448 43.0047 36.5448 42.8009V36.6548Z" fill="white"/>
</g>
</g>
<defs>
<filter id="filter0_d_3000_84883" x="0.694066" y="0.546769" width="65.5572" height="65.558" filterUnits="userSpaceOnUse" color-interpolation-filters="sRGB">
<feFlood flood-opacity="0" result="BackgroundImageFix"/>
<feColorMatrix in="SourceAlpha" type="matrix" values="0 0 0 0 0 0 0 0 0 0 0 0 0 0 0 0 0 0 127 0" result="hardAlpha"/>
<feOffset dy="2.04869"/>
<feGaussianBlur stdDeviation="5.12172"/>
<feComposite in2="hardAlpha" operator="out"/>
<feColorMatrix type="matrix" values="0 0 0 0 0.486275 0 0 0 0 0.552941 0 0 0 0 0.709804 0 0 0 0.12 0"/>
<feBlend mode="normal" in2="BackgroundImageFix" result="effect1_dropShadow_3000_84883"/>
<feBlend mode="normal" in="SourceGraphic" in2="effect1_dropShadow_3000_84883" result="shape"/>
</filter>
<clipPath id="clip0_3000_84883">
<rect width="24.5842" height="24.5842" fill="white" transform="translate(21.1797 18.9849)"/>
</clipPath>
</defs>
</svg>
