<svg width="67" height="67" viewBox="0 0 67 67" fill="none" xmlns="http://www.w3.org/2000/svg">
<g filter="url(#filter0_d_3000_84873)">
<rect x="10.9219" y="8.74152" width="45.0711" height="45.0711" rx="12.2921" fill="#212529" shape-rendering="crispEdges"/>
<rect x="11.434" y="9.25369" width="44.0468" height="44.0468" rx="11.7799" stroke="#343A40" stroke-width="1.02434" shape-rendering="crispEdges"/>
<path d="M33.4574 31.2771C34.6799 31.2771 35.8524 30.7914 36.7168 29.927C37.5813 29.0625 38.0669 27.8901 38.0669 26.6675C38.0669 25.445 37.5813 24.2725 36.7168 23.4081C35.8524 22.5436 34.6799 22.058 33.4574 22.058C32.2348 22.058 31.0624 22.5436 30.1979 23.4081C29.3335 24.2725 28.8478 25.445 28.8478 26.6675C28.8478 27.8901 29.3335 29.0625 30.1979 29.927C31.0624 30.7914 32.2348 31.2771 33.4574 31.2771ZM36.5304 26.6675C36.5304 27.4825 36.2066 28.2642 35.6303 28.8405C35.054 29.4168 34.2724 29.7406 33.4574 29.7406C32.6424 29.7406 31.8607 29.4168 31.2844 28.8405C30.7081 28.2642 30.3843 27.4825 30.3843 26.6675C30.3843 25.8525 30.7081 25.0709 31.2844 24.4946C31.8607 23.9183 32.6424 23.5945 33.4574 23.5945C34.2724 23.5945 35.054 23.9183 35.6303 24.4946C36.2066 25.0709 36.5304 25.8525 36.5304 26.6675ZM42.6765 38.9597C42.6765 40.4962 41.1399 40.4962 41.1399 40.4962H25.7748C25.7748 40.4962 24.2383 40.4962 24.2383 38.9597C24.2383 37.4231 25.7748 32.8136 33.4574 32.8136C41.1399 32.8136 42.6765 37.4231 42.6765 38.9597ZM41.1399 38.9535C41.1384 38.5755 40.9033 37.4385 39.8616 36.3967C38.8598 35.3949 36.9745 34.3501 33.4574 34.3501C29.9388 34.3501 28.055 35.3949 27.0532 36.3967C26.0114 37.4385 25.7779 38.5755 25.7748 38.9535H41.1399Z" fill="white"/>
</g>
<defs>
<filter id="filter0_d_3000_84873" x="0.678441" y="0.546769" width="65.5572" height="65.558" filterUnits="userSpaceOnUse" color-interpolation-filters="sRGB">
<feFlood flood-opacity="0" result="BackgroundImageFix"/>
<feColorMatrix in="SourceAlpha" type="matrix" values="0 0 0 0 0 0 0 0 0 0 0 0 0 0 0 0 0 0 127 0" result="hardAlpha"/>
<feOffset dy="2.04869"/>
<feGaussianBlur stdDeviation="5.12172"/>
<feComposite in2="hardAlpha" operator="out"/>
<feColorMatrix type="matrix" values="0 0 0 0 0.486275 0 0 0 0 0.552941 0 0 0 0 0.709804 0 0 0 0.12 0"/>
<feBlend mode="normal" in2="BackgroundImageFix" result="effect1_dropShadow_3000_84873"/>
<feBlend mode="normal" in="SourceGraphic" in2="effect1_dropShadow_3000_84873" result="shape"/>
</filter>
</defs>
</svg>
